# Blender v2.91.2 OBJ File: ''
# www.blender.org
mtllib new_cube1.mtl
o Cone_Cone.002_Cone_Cone.007
v 0.499982 0.300000 -0.866005
v 0.246623 0.300000 -0.717466
v 0.397168 0.176600 -0.687679
v -0.499987 -0.050000 -0.866003
v -0.500000 0.050000 -0.866025
v 0.499982 0.050000 -0.866005
v 0.500000 -0.050000 -0.866025
v -0.500000 0.130459 -0.866025
v -0.999973 0.251147 0.000005
v -0.999973 0.300000 0.000005
v -0.500000 0.150000 -0.866025
v 0.498032 0.300000 0.572315
v 0.499867 0.300000 -0.580184
v 0.397160 0.176604 0.687624
v 0.499982 0.251147 -0.866005
v -0.999974 -0.050000 -0.000000
v -0.999973 0.050000 0.000005
v -0.752387 0.300000 -0.142806
v 0.000038 0.299953 0.000013
v 0.205353 0.127850 -0.355502
v -0.410448 0.127813 -0.000096
v 1.000000 -0.050000 -0.000000
v 1.000000 0.050000 0.000000
v 0.499991 0.050000 0.866000
v 0.500000 -0.050000 0.866025
v 1.000000 0.130459 0.000000
v 1.000000 0.150000 0.000000
v -0.794134 0.176601 -0.000118
v 0.499991 0.251147 0.866000
v 0.499991 0.300000 0.866000
v -0.744656 0.300000 0.145151
v 0.252520 0.300000 0.722989
v -0.499987 -0.050000 0.866003
v -0.500000 0.050000 0.866025
v -0.500000 0.130459 0.866025
v -0.500000 0.150000 0.866025
v 0.205349 0.127835 0.355406
v 0.392774 0.174382 0.680025
v -0.785359 0.174379 -0.000119
v 0.392783 0.174379 -0.680081
vt 0.586896 0.978337
vt 0.614035 0.914167
vt 0.638384 0.954036
vt 0.000023 0.500003
vt 0.050020 0.999969
vt 0.000023 0.999978
vt 0.575365 0.503921
vt 0.551342 0.741106
vt 0.546708 0.741105
vt 0.752797 0.448256
vt 0.813421 0.007444
vt 0.808239 0.489310
vt 0.575307 0.978335
vt 0.050020 0.000027
vt 0.000022 0.000022
vt 0.612968 0.566526
vt 0.586953 0.503922
vt 0.745462 0.943385
vt 0.564193 0.740837
vt 0.749387 0.539654
vt 0.943160 0.745007
vt 0.870551 0.868799
vt 0.873229 0.619716
vt 0.982144 0.504311
vt 0.956889 0.745689
vt 0.933497 0.503146
vt 0.970553 0.988008
vt 0.976349 0.746155
vt 0.645720 0.033213
vt 0.620303 0.071397
vt 0.594288 0.008793
vt 0.000023 0.500003
vt 0.050020 0.999969
vt 0.000023 0.999978
vt 0.582700 0.008791
vt 0.558678 0.245976
vt 0.554043 0.245976
vt 0.806085 0.502573
vt 0.800904 0.984439
vt 0.582642 0.483206
vt 0.594231 0.483207
vt 0.050020 0.000027
vt 0.000022 0.000022
vt 0.621370 0.419037
vt 0.571528 0.245708
vt 0.756722 0.044525
vt 0.307180 0.451923
vt 0.367804 0.011112
vt 0.362622 0.492978
vt 0.200103 0.036881
vt 0.174686 0.075064
vt 0.148671 0.012460
vt 0.989479 0.009182
vt 0.964225 0.250559
vt 0.940832 0.008016
vt 0.977888 0.492878
vt 0.983684 0.251025
vt 0.148614 0.486875
vt 0.175753 0.422705
vt 0.200102 0.462574
vt 0.000023 0.500003
vt 0.050020 0.999969
vt 0.000023 0.999978
vt 0.137084 0.012459
vt 0.113061 0.249644
vt 0.108426 0.249643
vt 0.645719 0.458906
vt 0.137025 0.486873
vt 0.050020 0.000027
vt 0.000022 0.000022
vt 0.125911 0.249375
vt 0.311105 0.048192
vt 0.638384 0.528343
vt 0.504878 0.253545
vt 0.432294 0.377319
vt 0.434973 0.128235
vt 0.543862 0.012849
vt 0.518608 0.254227
vt 0.495215 0.011684
vt 0.532271 0.496546
vt 0.538067 0.254693
vt 0.364526 0.490336
vt 0.369651 0.013793
vt 0.807933 0.505255
vt 0.810143 0.486668
vt 0.815268 0.010126
vt 0.950495 0.249877
vt 0.877881 0.373639
vt 0.880559 0.124557
vt 0.802808 0.981798
vt 0.050020 0.500003
vt 0.921904 0.986842
vt 0.050020 0.500003
vt 0.929240 0.491712
vt 0.050020 0.500003
vt 0.483623 0.495380
vt 0.525574 0.875699
vt 0.105065 0.875699
vt 0.315319 0.511528
vt 0.525574 0.632918
vt 0.315319 0.997089
vt 0.105065 0.632918
vn 0.3901 0.6365 0.6654
vn -0.1909 -0.3687 -0.9097
vn -0.0000 0.0002 -1.0000
vn -0.8660 0.0000 -0.5000
vn -0.3197 0.5397 -0.7788
vn -0.8142 0.3663 -0.4504
vn -0.7742 0.6329 -0.0000
vn 0.0000 0.0000 -1.0000
vn -0.7268 -0.1665 -0.6663
vn -0.6745 0.3481 -0.6510
vn -0.2200 0.9683 0.1187
vn -0.1439 0.9591 -0.2437
vn -0.1438 0.9587 -0.2453
vn -0.1404 0.9586 -0.2476
vn -0.4456 0.8014 -0.3990
vn -0.1420 0.9583 -0.2481
vn -0.1414 0.9583 -0.2485
vn -0.4945 0.8451 -0.2032
vn -0.1439 0.9587 -0.2454
vn -0.3212 0.7663 -0.5565
vn 0.3656 -0.0271 -0.9304
vn -0.9875 -0.0469 -0.1502
vn -0.9337 0.3068 -0.1848
vn -0.7685 0.6398 -0.0003
vn 0.8834 -0.3686 0.2892
vn 0.8660 0.0002 0.5000
vn 0.8660 0.0000 -0.5000
vn 0.8343 0.5397 0.1125
vn 0.7972 0.3663 -0.4800
vn 0.3867 0.6336 0.6701
vn 0.8660 0.0000 0.5000
vn 0.9404 -0.1665 -0.2963
vn 0.8660 0.0003 -0.5000
vn 0.9012 0.3481 -0.2581
vn 0.0072 0.9683 -0.2498
vn 0.2831 0.9591 -0.0027
vn 0.2843 0.9587 -0.0019
vn 0.2845 0.9587 0.0022
vn 0.5684 0.8014 -0.1864
vn 0.2859 0.9583 0.0011
vn 0.2859 0.9582 0.0017
vn 0.4232 0.8451 -0.3267
vn 0.2845 0.9587 -0.0020
vn 0.3868 0.6336 -0.6700
vn 0.3841 0.6408 -0.6647
vn 0.6229 -0.0271 0.7819
vn 0.6239 -0.0469 -0.7801
vn 0.6269 0.3068 -0.7162
vn 0.3812 0.6365 -0.6705
vn -0.6923 -0.3688 0.6202
vn -0.8660 -0.0000 0.5000
vn 0.0000 0.0000 1.0000
vn -0.5146 0.5397 0.6663
vn 0.0171 0.3663 0.9303
vn -0.7719 0.6358 0.0051
vn -0.2136 -0.1665 0.9626
vn -0.0000 0.0002 1.0000
vn -0.2266 0.3483 0.9096
vn 0.2128 0.9683 0.1311
vn -0.1391 0.9591 0.2465
vn -0.1405 0.9587 0.2472
vn -0.1442 0.9587 0.2453
vn -0.1228 0.8014 0.5854
vn -0.1439 0.9583 0.2470
vn -0.1445 0.9583 0.2467
vn 0.0713 0.8451 0.5298
vn -0.1405 0.9587 0.2473
vn 0.3840 0.6398 0.6657
vn -0.3214 0.7660 0.5567
vn -0.8660 0.0005 0.5000
vn -0.9885 -0.0270 0.1485
vn 0.3637 -0.0469 0.9303
vn 0.3068 0.3068 0.9010
vn 0.2259 0.8921 -0.3912
vn 0.2259 0.8920 0.3914
vn -0.4519 0.8921 -0.0000
vn 0.6424 0.7664 0.0000
vn 0.1205 0.9705 -0.2087
vn 0.1205 0.9705 0.2088
vn -0.2409 0.9705 0.0000
vn 0.0318 -0.4143 -0.9096
vn 0.3068 -0.3070 -0.9009
vn 0.0000 -0.0002 -1.0000
vn -0.2043 -0.0182 -0.9787
vn -0.7681 0.6403 -0.0012
vn 0.3616 0.0608 -0.9304
vn -0.5887 0.4576 -0.6663
vn -0.8660 -0.0002 -0.5000
vn -0.9336 -0.3070 -0.1847
vn -0.5802 -0.0098 -0.8144
vn 0.3068 0.3068 -0.9010
vn 0.0175 -0.3662 -0.9304
vn -0.9879 0.0416 -0.1497
vn 0.7720 -0.4142 0.4821
vn 0.6269 -0.3068 0.7162
vn 0.9498 -0.0182 0.3125
vn 0.3830 0.6403 0.6658
vn 0.6249 0.0608 0.7783
vn 0.8714 0.4577 -0.1767
vn 0.6269 -0.3068 -0.7162
vn 0.9954 -0.0101 -0.0952
vn 0.3847 0.6412 -0.6639
vn 0.6268 0.3068 0.7162
vn 0.7969 -0.3662 0.4804
vn 0.6236 0.0416 -0.7806
vn -0.8036 -0.4143 0.4273
vn -0.9336 -0.3070 0.1848
vn -0.8660 -0.0002 0.5000
vn -0.7455 -0.0182 0.6663
vn -0.9865 0.0608 0.1520
vn -0.2826 0.4577 0.8430
vn 0.0000 -0.0002 1.0000
vn 0.3069 -0.3070 0.9009
vn -0.4152 -0.0098 0.9097
vn -0.8658 0.0000 0.5004
vn -0.9337 0.3068 0.1847
vn -0.8145 -0.3662 0.4499
vn 0.3644 0.0416 0.9303
vn 0.2257 0.8922 0.3911
vn 0.1206 0.9705 -0.2088
vn 0.1204 0.9706 0.2086
vn -0.2410 0.9705 -0.0000
vn 0.0000 -1.0000 -0.0000
usemtl Material.002
s off
f 1/1/1 2/2/1 3/3/1
f 4/4/2 6/5/3 7/6/3
f 9/7/4 11/8/5 8/9/6
f 12/10/7 3/11/7 14/12/7
f 15/13/8 11/8/9 1/1/8
f 17/14/4 4/4/10 16/15/4
f 11/8/11 2/2/12 1/1/13
f 18/16/14 11/8/15 10/17/16
f 2/18/17 11/19/18 18/20/19
f 19/21/20 20/22/20 21/23/20
f 6/24/8 8/25/21 15/26/8
f 17/27/4 8/25/22 5/28/23
f 3/29/24 13/30/24 1/31/24
f 22/32/25 24/33/26 25/34/26
f 15/35/27 27/36/28 26/37/29
f 2/18/30 28/38/30 3/39/30
f 29/40/31 27/36/32 30/41/31
f 6/42/33 22/32/34 7/43/33
f 27/36/35 12/44/36 30/41/37
f 13/30/38 27/36/39 1/31/40
f 12/10/41 27/45/42 13/46/43
f 31/47/44 14/48/44 28/49/44
f 14/50/45 32/51/45 30/52/45
f 24/53/31 26/54/46 29/55/31
f 6/56/27 26/54/47 23/57/48
f 10/58/49 31/59/49 28/60/49
f 33/61/50 17/62/51 16/63/51
f 29/64/52 36/65/53 35/66/54
f 30/41/55 12/44/55 14/67/55
f 9/68/51 36/65/56 10/58/51
f 24/69/57 33/61/58 25/70/57
f 36/65/59 31/59/60 10/58/61
f 32/51/62 36/65/63 30/52/64
f 31/47/65 36/71/66 32/72/67
f 28/73/68 18/16/68 10/17/68
f 19/74/69 21/75/69 37/76/69
f 17/77/70 35/78/71 9/79/51
f 24/80/52 35/78/72 34/81/73
f 39/82/74 14/48/74 38/83/74
f 39/84/75 3/39/75 28/38/75
f 38/85/76 3/11/76 40/86/76
f 19/87/77 37/88/77 20/89/77
f 21/75/78 38/83/78 37/76/78
f 21/23/79 40/90/79 39/84/79
f 37/88/80 40/86/80 20/89/80
f 4/4/81 5/91/82 6/5/83
f 9/7/4 10/17/4 11/8/84
f 12/10/85 13/46/85 3/11/85
f 15/13/8 8/9/86 11/8/87
f 17/14/88 5/91/89 4/4/90
f 6/24/8 5/28/91 8/25/92
f 17/27/4 9/92/4 8/25/93
f 22/32/94 23/93/95 24/33/31
f 15/35/27 1/31/27 27/36/96
f 2/18/97 18/20/97 28/38/97
f 29/40/31 26/37/98 27/36/99
f 6/42/27 23/93/100 22/32/101
f 31/47/102 32/72/102 14/48/102
f 24/53/31 23/57/103 26/54/104
f 6/56/27 15/94/27 26/54/105
f 33/61/106 34/95/107 17/62/108
f 29/64/52 30/52/52 36/65/109
f 9/68/51 35/66/110 36/65/111
f 24/69/112 34/95/113 33/61/114
f 17/77/115 34/81/116 35/78/117
f 24/80/52 29/96/52 35/78/118
f 39/82/74 28/49/74 14/48/74
f 39/84/119 40/90/119 3/39/119
f 38/85/76 14/12/76 3/11/76
f 21/75/120 39/82/120 38/83/120
f 21/23/121 20/22/121 40/90/121
f 37/88/122 38/85/122 40/86/122
s 1
f 22/97/123 33/98/123 4/99/123
f 4/99/123 7/100/123 22/97/123
f 22/97/123 25/101/123 33/98/123
f 33/98/123 16/102/123 4/99/123
